<?xml version="1.0" standalone="no"?>
<!DOCTYPE svg PUBLIC "-//W3C//DTD SVG 20010904//EN"
 "http://www.w3.org/TR/2001/REC-SVG-20010904/DTD/svg10.dtd">
<svg version="1.0" xmlns="http://www.w3.org/2000/svg"
 width="761.000000pt" height="259.000000pt" viewBox="0 0 761.000000 259.000000"
 preserveAspectRatio="xMidYMid meet">
<metadata>
Created by potrace 1.16, written by Peter Selinger 2001-2019
</metadata>
<g transform="translate(0.000000,259.000000) scale(0.100000,-0.100000)"
fill="#000000" stroke="none">
<path d="M2521 2453 c-22 -43 -32 -195 -41 -643 -5 -261 -12 -505 -15 -541 -4
-36 -2 -126 5 -200 8 -99 8 -173 0 -279 -27 -354 -22 -646 11 -687 8 -9 26
-13 48 -11 56 5 60 22 72 320 14 339 16 1982 3 2023 -8 24 -17 31 -41 33 -23
2 -35 -2 -42 -15z"/>
<path d="M3007 2282 c-21 -23 -22 -89 -2 -237 26 -189 35 -276 44 -419 5 -76
15 -144 21 -150 6 -6 34 -11 63 -12 28 -1 69 -5 90 -9 119 -24 276 119 302
276 13 77 -39 195 -103 232 -43 25 -149 26 -210 2 -24 -10 -44 -16 -46 -14 -2
2 -14 58 -25 124 -27 158 -38 191 -64 210 -28 20 -50 19 -70 -3z m364 -466
c23 -38 24 -75 4 -123 -20 -48 -41 -71 -87 -94 -47 -24 -53 -24 -78 1 -17 17
-20 33 -20 109 0 89 0 90 31 112 34 24 84 38 113 31 10 -3 27 -19 37 -36z"/>
<path d="M3846 2246 c-9 -6 -23 -28 -31 -50 -28 -68 13 -121 92 -119 55 2 79
35 74 105 -3 42 -103 89 -135 64z"/>
<path d="M1523 2197 c-23 -24 -53 -63 -68 -86 -33 -50 -50 -51 -129 -11 -79
40 -104 39 -147 -7 -51 -54 -69 -84 -69 -113 0 -34 27 -59 115 -106 39 -20 71
-38 73 -40 2 -1 -17 -42 -42 -92 -50 -97 -54 -116 -30 -150 34 -48 86 -15 159
103 21 33 39 62 41 64 2 2 23 -8 47 -22 24 -15 67 -35 94 -46 l50 -20 32 22
c17 12 46 47 65 77 47 75 42 84 -89 162 -38 23 -72 43 -74 45 -3 2 17 48 44
104 40 84 47 105 39 127 -7 20 -17 28 -40 30 -25 2 -38 -5 -71 -41z"/>
<path d="M5285 2044 c-27 -13 -56 -24 -63 -24 -30 0 -122 -53 -145 -83 -64
-84 -111 -217 -101 -284 27 -184 282 -250 378 -98 16 25 32 45 35 45 4 0 24
-18 45 -39 22 -22 52 -45 68 -52 25 -10 32 -9 53 11 34 32 32 69 -6 116 -53
67 -85 151 -104 274 -9 53 -36 120 -60 143 -22 22 -39 21 -100 -9z m25 -186
c15 -53 6 -115 -26 -175 -35 -66 -53 -83 -85 -83 -28 0 -72 41 -84 79 -8 26
18 114 46 152 27 39 76 69 111 69 23 0 29 -6 38 -42z"/>
<path d="M4291 1994 l-34 -14 6 -60 c4 -33 2 -138 -3 -234 -12 -214 -5 -249
51 -254 59 -5 69 16 75 159 6 147 24 219 60 248 52 41 121 15 144 -53 6 -19
15 -93 20 -164 4 -72 11 -136 15 -142 22 -35 99 -26 111 13 18 57 -4 275 -38
364 -33 90 -94 120 -247 122 -47 1 -81 7 -94 16 -26 18 -23 18 -66 -1z"/>
<path d="M5961 1970 c-35 -16 -56 -19 -105 -14 -92 9 -90 14 -77 -228 6 -112
14 -217 17 -235 6 -43 28 -63 67 -63 62 0 62 3 59 183 l-3 163 35 32 c49 44
75 52 148 45 74 -6 89 4 91 63 2 56 -27 74 -117 74 -49 0 -84 -7 -115 -20z"/>
<path d="M6807 1943 c-9 -10 -43 -83 -74 -163 -30 -80 -60 -149 -65 -155 -9
-10 -112 94 -182 184 -54 72 -87 95 -120 87 -38 -9 -51 -40 -37 -87 15 -49 67
-118 174 -229 48 -49 87 -96 87 -103 0 -20 -85 -192 -121 -243 -16 -24 -37
-60 -45 -79 -14 -34 -13 -37 10 -60 56 -56 99 -20 208 175 108 192 169 317
223 455 57 145 63 176 41 210 -20 30 -72 34 -99 8z"/>
<path d="M382 1939 c-76 -30 -205 -188 -232 -282 -32 -115 17 -228 133 -305
54 -36 165 -43 229 -14 59 26 120 82 170 155 80 117 93 174 62 276 -20 68
-100 154 -159 170 -48 13 -171 13 -203 0z m107 -226 c43 -33 66 -71 66 -113 0
-47 -3 -50 -52 -56 -59 -8 -122 29 -151 88 -26 53 -23 84 11 99 31 13 96 4
126 -18z"/>
<path d="M3828 1938 c-51 -42 -84 -352 -46 -424 26 -48 64 -58 97 -25 15 15
20 40 25 108 4 48 11 139 18 202 11 113 10 115 -12 133 -26 21 -60 23 -82 6z"/>
<path d="M1626 1260 c-127 -38 -241 -77 -255 -88 -14 -10 -37 -34 -53 -53
l-28 -34 81 -250 c45 -138 84 -254 89 -258 9 -10 319 77 438 123 95 36 152 80
152 116 0 19 -64 237 -141 482 -8 23 -16 32 -32 32 -12 -1 -125 -32 -251 -70z
m112 -192 c15 -19 42 -105 49 -154 5 -41 4 -44 -23 -55 -48 -18 -128 -37 -140
-32 -15 6 -31 42 -54 126 -23 81 -25 77 60 109 55 20 94 22 108 6z"/>
<path d="M3217 1144 c-3 -3 -43 -8 -89 -10 -97 -5 -110 -15 -130 -104 -15 -70
-15 -384 2 -590 13 -163 16 -172 68 -186 22 -6 180 34 224 57 74 38 152 106
209 181 124 164 151 270 109 428 -20 72 -29 91 -65 126 -45 44 -110 78 -177
94 -48 11 -141 13 -151 4z m160 -160 c29 -14 64 -39 79 -57 25 -30 26 -35 22
-122 -3 -75 -9 -102 -33 -151 -35 -71 -108 -147 -190 -196 -80 -47 -101 -53
-110 -31 -23 62 -34 500 -12 543 26 52 148 59 244 14z"/>
<path d="M642 943 c-18 -35 -37 -92 -46 -143 -30 -165 -77 -483 -71 -488 6 -6
104 22 347 99 150 47 158 51 197 95 l41 47 -31 36 c-62 72 -391 411 -398 411
-5 0 -22 -26 -39 -57z"/>
<path d="M5545 930 c-3 -5 -45 -21 -92 -36 -72 -22 -93 -33 -129 -70 -83 -86
-125 -221 -102 -328 8 -40 20 -60 54 -93 54 -52 103 -68 180 -58 54 6 63 11
112 61 29 30 55 54 58 54 3 0 30 -20 61 -45 30 -25 60 -45 66 -45 20 0 67 53
67 76 0 12 -20 46 -45 75 -45 53 -62 96 -85 214 -18 93 -39 151 -65 179 -24
26 -68 35 -80 16z m-5 -169 c5 -11 10 -46 10 -79 0 -99 -80 -233 -129 -217
-31 9 -71 74 -71 113 0 66 56 158 113 186 43 21 64 20 77 -3z"/>
<path d="M7320 930 c-131 -22 -205 -103 -186 -203 11 -58 42 -86 160 -141 123
-58 140 -72 131 -109 -13 -51 -40 -67 -113 -67 -37 0 -92 7 -122 15 -107 30
-126 30 -145 2 -23 -35 -16 -57 24 -84 82 -56 237 -78 334 -49 69 21 100 48
137 121 31 61 32 68 21 105 -22 75 -90 133 -205 174 -73 27 -86 37 -86 73 0
17 8 24 36 29 34 6 109 1 166 -12 57 -13 95 78 46 110 -24 15 -124 47 -142 45
-6 -1 -31 -5 -56 -9z"/>
<path d="M6014 873 c-13 -65 -10 -501 2 -513 16 -16 86 -23 103 -11 11 7 16
46 21 158 10 212 35 262 125 251 16 -2 37 -15 49 -31 19 -26 21 -44 24 -213 4
-184 4 -184 29 -204 32 -25 55 -25 75 -2 24 28 29 51 38 169 9 133 32 192 84
217 67 31 157 11 176 -39 5 -13 14 -72 21 -132 6 -59 15 -118 20 -130 16 -42
102 -43 118 0 10 26 -2 151 -25 263 -13 69 -22 88 -52 119 -64 65 -115 80
-225 65 -39 -6 -90 -21 -113 -34 l-42 -23 -31 44 c-53 75 -149 103 -226 66
-35 -17 -38 -17 -67 0 -16 9 -45 17 -63 17 -31 0 -35 -3 -41 -37z"/>
<path d="M4670 881 c-53 -11 -92 -35 -139 -86 -64 -70 -86 -124 -86 -220 0
-99 27 -161 109 -247 l54 -58 128 0 c124 0 131 1 180 30 69 39 106 84 102 124
-5 54 -39 56 -153 6 -54 -24 -110 -43 -126 -43 -47 0 -146 90 -123 113 5 5 61
22 126 39 64 16 130 37 146 45 35 18 82 104 82 150 0 35 -38 87 -93 127 -35
25 -48 29 -106 28 -36 -1 -82 -4 -101 -8z m142 -138 c48 -43 -12 -82 -139 -91
-67 -4 -73 -3 -73 14 1 69 158 126 212 77z"/>
<path d="M4062 843 c-48 -25 -54 -25 -92 -13 -50 16 -86 3 -96 -35 -9 -37 12
-404 26 -442 20 -54 90 -65 123 -19 4 6 6 81 5 167 -3 156 -3 157 22 178 50
41 99 60 133 50 78 -22 110 -2 105 69 -4 57 -26 72 -113 72 -47 0 -73 -6 -113
-27z"/>
</g>
</svg>
